<svg width="498" height="1176" viewBox="0 0 498 1176" fill="none" xmlns="http://www.w3.org/2000/svg">
<g filter="url(#filter0_f_490_12373)">
<path d="M260.266 699.664C148.747 930.487 -106.941 1037.75 -310.829 939.245C-514.716 840.74 -589.596 573.766 -478.076 342.942C-366.557 112.119 -189.388 207.994 14.4999 306.5C218.388 405.006 371.786 468.841 260.266 699.664Z" fill="url(#paint0_linear_490_12373)" fill-opacity="0.24"/>
<path d="M260.266 699.664C148.747 930.487 -106.941 1037.75 -310.829 939.245C-514.716 840.74 -589.596 573.766 -478.076 342.942C-366.557 112.119 -189.388 207.994 14.4999 306.5C218.388 405.006 371.786 468.841 260.266 699.664Z" fill="url(#paint1_linear_490_12373)" fill-opacity="0.24"/>
</g>
<defs>
<filter id="filter0_f_490_12373" x="-729.77" y="0.245239" width="1227.55" height="1175.58" filterUnits="userSpaceOnUse" color-interpolation-filters="sRGB">
<feFlood flood-opacity="0" result="BackgroundImageFix"/>
<feBlend mode="normal" in="SourceGraphic" in2="BackgroundImageFix" result="shape"/>
<feGaussianBlur stdDeviation="100" result="effect1_foregroundBlur_490_12373"/>
</filter>
<linearGradient id="paint0_linear_490_12373" x1="290.634" y1="965.443" x2="414.892" y2="605.701" gradientUnits="userSpaceOnUse">
<stop stop-color="#B4C4EB"/>
<stop offset="1" stop-color="white"/>
</linearGradient>
<linearGradient id="paint1_linear_490_12373" x1="290.634" y1="965.443" x2="414.892" y2="605.701" gradientUnits="userSpaceOnUse">
<stop stop-color="#B4C4EB"/>
<stop offset="1" stop-color="white"/>
</linearGradient>
</defs>
</svg>