<svg class="group-hover:fill-white insta "  width="18" height="18" viewBox="0 0 18 18" fill="none" xmlns="http://www.w3.org/2000/svg">
<path d="M12.5299 4.36783C12.3618 4.36783 12.1974 4.41768 12.0577 4.51108C11.9179 4.60448 11.8089 4.73723 11.7446 4.89254C11.6803 5.04786 11.6634 5.21877 11.6962 5.38365C11.729 5.54854 11.81 5.69999 11.9289 5.81887C12.0477 5.93774 12.1992 6.0187 12.3641 6.05149C12.529 6.08429 12.6999 6.06746 12.8552 6.00312C13.0105 5.93879 13.1432 5.82984 13.2366 5.69006C13.33 5.55028 13.3799 5.38594 13.3799 5.21783C13.3799 4.99239 13.2903 4.77619 13.1309 4.61678C12.9715 4.45738 12.7553 4.36783 12.5299 4.36783ZM15.7882 6.08199C15.7745 5.49429 15.6644 4.91282 15.4624 4.36074C15.2823 3.88838 15.002 3.46065 14.6407 3.10699C14.29 2.74392 13.8612 2.46537 13.387 2.29241C12.8364 2.08427 12.2542 1.97168 11.6657 1.95949C10.9149 1.91699 10.6741 1.91699 8.7474 1.91699C6.82073 1.91699 6.5799 1.91699 5.82906 1.95949C5.24055 1.97168 4.65843 2.08427 4.10781 2.29241C3.63442 2.46712 3.20606 2.74543 2.85406 3.10699C2.49099 3.45774 2.21244 3.88647 2.03948 4.36074C1.83134 4.91136 1.71875 5.49348 1.70656 6.08199C1.66406 6.83283 1.66406 7.07366 1.66406 9.00033C1.66406 10.927 1.66406 11.1678 1.70656 11.9187C1.71875 12.5072 1.83134 13.0893 2.03948 13.6399C2.21244 14.1142 2.49099 14.5429 2.85406 14.8937C3.20606 15.2552 3.63442 15.5335 4.10781 15.7082C4.65843 15.9164 5.24055 16.029 5.82906 16.0412C6.5799 16.0837 6.82073 16.0837 8.7474 16.0837C10.6741 16.0837 10.9149 16.0837 11.6657 16.0412C12.2542 16.029 12.8364 15.9164 13.387 15.7082C13.8612 15.5353 14.29 15.2567 14.6407 14.8937C15.0036 14.5413 15.2841 14.1132 15.4624 13.6399C15.6644 13.0878 15.7745 12.5064 15.7882 11.9187C15.7882 11.1678 15.8307 10.927 15.8307 9.00033C15.8307 7.07366 15.8307 6.83283 15.7882 6.08199ZM14.5132 11.8337C14.5081 12.2833 14.4266 12.7288 14.2724 13.1512C14.1593 13.4594 13.9776 13.738 13.7411 13.9657C13.5114 14.1999 13.2334 14.3811 12.9266 14.497C12.5042 14.6512 12.0587 14.7327 11.6091 14.7378C10.9007 14.7732 10.6386 14.7803 8.77573 14.7803C6.91281 14.7803 6.65073 14.7803 5.9424 14.7378C5.47553 14.7466 5.01065 14.6747 4.56823 14.5253C4.27482 14.4035 4.00961 14.2227 3.78906 13.9941C3.55396 13.7665 3.37458 13.4878 3.2649 13.1795C3.09196 12.7511 2.99604 12.2955 2.98156 11.8337C2.98156 11.1253 2.93906 10.8632 2.93906 9.00033C2.93906 7.13741 2.93906 6.87533 2.98156 6.16699C2.98474 5.70732 3.06865 5.25179 3.22948 4.82116C3.35418 4.52218 3.54558 4.25567 3.78906 4.04199C4.00426 3.79844 4.27022 3.60502 4.56823 3.47533C4.99999 3.31952 5.45506 3.23809 5.91406 3.23449C6.6224 3.23449 6.88448 3.19199 8.7474 3.19199C10.6103 3.19199 10.8724 3.19199 11.5807 3.23449C12.0304 3.23965 12.4759 3.32108 12.8982 3.47533C13.2201 3.59479 13.509 3.78901 13.7411 4.04199C13.9733 4.25958 14.1546 4.52559 14.2724 4.82116C14.4298 5.25249 14.5113 5.70784 14.5132 6.16699C14.5486 6.87533 14.5557 7.13741 14.5557 9.00033C14.5557 10.8632 14.5486 11.1253 14.5132 11.8337ZM8.7474 5.36658C8.02901 5.36798 7.32716 5.58228 6.73053 5.98241C6.13389 6.38254 5.66925 6.95055 5.3953 7.61465C5.12136 8.27875 5.05041 9.00916 5.19142 9.71357C5.33242 10.418 5.67906 11.0648 6.18753 11.5723C6.696 12.0797 7.34349 12.4251 8.04817 12.5648C8.75286 12.7044 9.48312 12.632 10.1467 12.3568C10.8103 12.0816 11.3774 11.6158 11.7763 11.0184C12.1753 10.421 12.3882 9.71871 12.3882 9.00033C12.3892 8.52227 12.2956 8.04876 12.1129 7.607C11.9301 7.16525 11.6619 6.76398 11.3235 6.42628C10.9851 6.08857 10.5834 5.8211 10.1413 5.63923C9.69914 5.45737 9.22544 5.36471 8.7474 5.36658ZM8.7474 11.3591C8.28088 11.3591 7.82484 11.2207 7.43694 10.9616C7.04905 10.7024 6.74672 10.334 6.56819 9.90298C6.38967 9.47197 6.34296 8.99771 6.43397 8.54016C6.52498 8.0826 6.74963 7.66231 7.07951 7.33244C7.40938 7.00256 7.82967 6.77791 8.28723 6.6869C8.74478 6.59589 9.21905 6.6426 9.65005 6.82112C10.0811 6.99965 10.4494 7.30198 10.7086 7.68987C10.9678 8.07777 11.1061 8.53381 11.1061 9.00033C11.1061 9.31008 11.0451 9.6168 10.9266 9.90298C10.8081 10.1892 10.6343 10.4492 10.4153 10.6682C10.1963 10.8872 9.93623 11.061 9.65005 11.1795C9.36387 11.2981 9.05715 11.3591 8.7474 11.3591Z" fill="#09396F"/>
</svg>
