<svg width="19" height="18" viewBox="0 0 19 18" fill="none" xmlns="http://www.w3.org/2000/svg">
<path fill-rule="evenodd" clip-rule="evenodd" d="M9.25 3C9.89125 3 10.549 3.0165 11.1865 3.0435L11.9395 3.0795L12.6602 3.12225L13.3352 3.168L13.9517 3.216C14.6209 3.26692 15.2506 3.55233 15.73 4.02195C16.2093 4.49158 16.5076 5.1153 16.5722 5.78325L16.6022 6.102L16.6585 6.7845C16.711 7.49175 16.75 8.26275 16.75 9C16.75 9.73725 16.711 10.5083 16.6585 11.2155L16.6022 11.898L16.5722 12.2167C16.5076 12.8848 16.2092 13.5086 15.7297 13.9783C15.2502 14.4479 14.6203 14.7333 13.951 14.784L13.336 14.8312L12.661 14.8778L11.9395 14.9205L11.1865 14.9565C10.5414 14.9844 9.89573 14.9989 9.25 15C8.60427 14.9989 7.95863 14.9844 7.3135 14.9565L6.5605 14.9205L5.83975 14.8778L5.16475 14.8312L4.54825 14.784C3.87911 14.7331 3.2494 14.4477 2.77003 13.978C2.29067 13.5084 1.99239 12.8847 1.92775 12.2167L1.89775 11.898L1.8415 11.2155C1.78437 10.4783 1.75385 9.73936 1.75 9C1.75 8.26275 1.789 7.49175 1.8415 6.7845L1.89775 6.102L1.92775 5.78325C1.99237 5.11541 2.29053 4.49179 2.76975 4.02218C3.24896 3.55257 3.87849 3.26709 4.5475 3.216L5.16325 3.168L5.83825 3.12225L6.55975 3.0795L7.31275 3.0435C7.95813 3.01555 8.60402 3.00104 9.25 3ZM7.75 7.18125V10.8188C7.75 11.1652 8.125 11.3812 8.425 11.2087L11.575 9.39C11.6435 9.35054 11.7005 9.29372 11.7401 9.22525C11.7797 9.15678 11.8005 9.07909 11.8005 9C11.8005 8.92091 11.7797 8.84322 11.7401 8.77475C11.7005 8.70628 11.6435 8.64946 11.575 8.61L8.425 6.792C8.35657 6.75249 8.27894 6.7317 8.19993 6.73171C8.12091 6.73172 8.04329 6.75254 7.97487 6.79207C7.90646 6.8316 7.84965 6.88845 7.81018 6.9569C7.7707 7.02535 7.74995 7.10298 7.75 7.182V7.18125Z" fill="#09396F"/>
</svg>
